<svg xmlns="http://www.w3.org/2000/svg" viewBox="0 0 489.03 303.77"><defs><style>.cls-1{fill:#574841;}.cls-1,.cls-2,.cls-5,.cls-6,.cls-7{stroke:#030301;stroke-linejoin:round;}.cls-1,.cls-2,.cls-5{stroke-width:3.77px;}.cls-2{fill:#7c5000;}.cls-3,.cls-5,.cls-6,.cls-7{fill:#bfa886;}.cls-4{fill:#030301;}.cls-6{stroke-width:3.72px;}.cls-7{stroke-width:4.07px;}.cls-8{fill:#997a4b;}.cls-9{fill:#aa9579;}.cls-10{fill:#423632;}.cls-11{fill:#ccb99e;}.cls-12{fill:#5b3902;}</style></defs><g id="Layer_2" data-name="Layer 2"><g id="master-artboard"><path class="cls-1" d="M478.93,7.8H395l-6.18,2.57L381.34,7.8H246.25V268.94H486Z"/><path class="cls-1" d="M246.25,7.8H13L8,208.63l2.22,10.67-2.82,13-.91,36.64H246.25Z"/><path class="cls-2" d="M9.39,7.31,8.52,42.44,51.75,7.31Z"/><path class="cls-2" d="M479.76,1.88H440.11l40.55,32.95ZM486,232l-52.81,42.9h53.94Z"/><path class="cls-2" d="M479.76,1.88H440.11l40.55,32.95Z"/><path class="cls-2" d="M3.81,230.57l-1,4.41-1,39.39,30.69-5.77Z"/><path class="cls-3" d="M50.55,264.3c-4.23-92.8,0-256.5,0-256.5S84.77,25.74,137.66,16,224-.38,246.21,7.8V268.94s-49.6-15.11-92.23-13C121,257.6,50.55,264.3,50.55,264.3Z"/><path class="cls-4" d="M50.43,264.46c-.3-5.28-.67-10.67-.94-16.1l-.11-2-.08-2-.15-4-.34-8c-.22-5.35-.37-10.7-.53-16s-.3-10.7-.41-16-.23-10.7-.3-16l-.19-16.05c-.08-5.36-.08-10.71-.11-16.06s0-10.71,0-16.06V120l.11-16c.08-10.71.15-21.38.34-32.08l.27-16,.37-16c.12-5.35.27-10.71.42-16l.49-16h0a1.32,1.32,0,0,1,1.39-1.28,1.34,1.34,0,0,1,.57.15C52,7.16,53,7.58,53.9,8s1.89.79,2.83,1.17c1.88.75,3.84,1.43,5.77,2.11q5.82,1.92,11.87,3.28a143.81,143.81,0,0,0,24.42,3.39c4.11.27,8.22.3,12.37.23l3.09-.08,3.09-.15,1.54-.07,1.55-.12,3.09-.26,3.09-.34c.53-.07,1-.11,1.55-.19l1.54-.22,3.06-.42,3.05-.53c2-.34,4.07-.71,6.1-1.09L148,13.57c16.28-2.94,32.57-6,49-8.26a212.3,212.3,0,0,1,24.84-2,99,99,0,0,1,12.51.72A60.16,60.16,0,0,1,246.7,6.9a1,1,0,0,1,.68.94v0l.53,65.28.26,65.29.11,32.64,0,32.57V236.3l-.08,32.64a1.93,1.93,0,0,1-1.92,1.92,2.13,2.13,0,0,1-.53-.07h0c-3.88-1.17-7.84-2.23-11.8-3.21L228,266.11l-6-1.35c-8-1.77-16.06-3.28-24.13-4.49l-3-.45c-1-.15-2-.26-3.06-.38-2-.22-4.07-.53-6.07-.75l-6.1-.6c-.49,0-1-.12-1.51-.16l-1.55-.11-3.05-.19-3.05-.19c-1,0-2-.07-3-.07l-3.06-.08c-1,0-2-.07-3.05,0l-6.11.11c-1,0-2,.07-3.05.11l-3.09.15c-8.18.42-16.4.91-24.61,1.47s-16.4,1.13-24.62,1.74l-24.57,1.81L63,263.59,56.8,264l-3.09.23-1.54.11-.79.08Zm.27-.31a2,2,0,0,1,.64-.11l.75-.07,1.55-.19,3-.34,6.14-.68,12.25-1.28q12.27-1.25,24.54-2.45t24.58-2.26c8.18-.68,16.4-1.36,24.61-1.93l3.09-.18c1-.08,2-.16,3.09-.16l6.22-.18c1.06,0,2.08,0,3.09,0l3.1,0c1,0,2.07,0,3.09,0l3.09.15,3.09.15,1.54.08,1.55.11,6.18.53c2.07.19,4.11.45,6.18.68,1,.11,2.08.22,3.09.37l3.06.42q12.27,1.69,24.42,4.26l6.07,1.32c2,.49,4,.94,6,1.43,4,1,8,2,12,3.2l-2.48,1.85-.08-32.64V203.66l.08-32.65.11-32.64.26-65.28.53-65.29.68.94A57.79,57.79,0,0,0,234.07,5.8a89.2,89.2,0,0,0-12.25-.86A193,193,0,0,0,197.14,6.6c-8.22,1-16.4,2.26-24.54,3.69s-16.32,2.86-24.43,4.41l-6.1,1.13c-2,.38-4.08.79-6.11,1.13l-3.05.53-3.09.45-1.55.23c-.53.07-1,.11-1.55.19l-3.09.37a176.9,176.9,0,0,1-24.91.87,152.26,152.26,0,0,1-24.8-3c-4.07-.83-8.15-1.88-12.14-3.09-2-.64-4-1.28-6-2-1-.38-2-.76-2.94-1.17S51,9.5,49.94,9l2-1.17L51,72,50.62,104l-.34,32.08c-.07,5.35-.07,10.7-.11,16l-.08,16-.07,16v16c0,5.35,0,10.7.07,16s0,10.7.12,16l.11,8,0,4,0,2,0,2Z"/><path class="cls-5" d="M50.55,7.8S38,27.7,21.33,31.44c0,0-.79,203.09,0,219.79L50.55,264.3Z"/><path class="cls-6" d="M246.25,7.8S295.67-2,338.18,12,455.33,4.11,455.33,4.11l-3,264.83s-48.93-13-113.42-8.52c-56.54,3.92-92.69,8.52-92.69,8.52V7.8Z"/><path class="cls-3" d="M246.25,7.8S295.67-2,338.18,12,455.33,4.11,455.33,4.11l-3,264.83s-48.93-13-113.42-8.52c-56.54,3.92-92.69,8.52-92.69,8.52V7.8Z"/><path class="cls-4" d="M246.1,7.69a.53.53,0,0,1,.3-.11l.19,0,.41-.08.83-.15,1.62-.3,3.28-.56c2.19-.34,4.38-.65,6.56-1,4.37-.52,8.78-1,13.19-1.28A223.76,223.76,0,0,1,299,4c4.41.22,8.86.6,13.23,1.17s8.78,1.2,13.16,2.14,8.66,2,12.92,3.36A91.31,91.31,0,0,0,351,13.57l3.24.45,1.62.23,1.62.15c1.1.11,2.19.22,3.24.3l3.28.19c4.38.19,8.75.26,13.12.15,2.19,0,4.37-.15,6.56-.26,1.09,0,2.19-.16,3.28-.23s2.18-.15,3.28-.26l3.28-.27,3.28-.34c2.18-.22,4.37-.49,6.52-.75,4.33-.57,8.7-1.21,13-1.92s8.63-1.55,13-2.42c8.59-1.77,17.19-3.73,25.59-6.06h0a1.63,1.63,0,0,1,2,1.13,1.78,1.78,0,0,1,.08.45q-.45,33.14-1.21,66.19c-.45,22-.94,44.14-1.28,66.19-.11,5.5-.19,11-.22,16.54l-.23,16.55-.3,33.1q-.29,33.12-.3,66.22a1.08,1.08,0,0,1-1.06,1.06.43.43,0,0,1-.22,0h0c-4.15-1-8.37-1.85-12.59-2.64-2.11-.37-4.22-.71-6.37-1.09l-6.37-1c-8.52-1.21-17.08-2.11-25.67-2.83a420.59,420.59,0,0,0-51.57-.9l-6.44.37c-2.15.12-4.3.23-6.45.42-4.29.34-8.59.64-12.89,1-8.59.68-17.19,1.43-25.78,2.19s-17.19,1.62-25.74,2.52-17.15,1.81-25.71,2.87h0a2,2,0,0,1-2.23-1.74v-.22c0-21.87.08-43.73.16-65.59l.18-32.76.23-32.71.57-65.29Zm.3.23.75,65.66.57,65.32.23,32.57.18,32.53c.08,21.67.19,43.3.15,65L246,267c17.18-2.11,34.37-3.77,51.64-5.2,8.59-.72,17.22-1.43,25.85-2l12.93-.9c2.15-.15,4.34-.26,6.48-.38l6.49-.34c.53,0,1.09-.07,1.62-.07l1.62,0,3.24-.08,6.52-.11,6.52,0c2.15,0,4.34,0,6.49.11,4.33.15,8.67.27,13,.57l3.24.19c1.1.07,2.15.11,3.24.22l6.49.57c8.63.83,17.22,1.84,25.78,3.24l6.41,1.09c2.15.42,4.26.79,6.37,1.21,4.26.87,8.48,1.77,12.7,2.86l-1.32,1c.42-22.05.87-44.14,1.17-66.19l.41-33.09.15-16.55c0-5.5.12-11,.12-16.55.15-22.09.15-44.14.19-66.22s.11-44.14.3-66.23l2.11,1.62c-2.15.6-4.3,1.17-6.45,1.73s-4.29,1.1-6.44,1.59c-4.3,1-8.63,2-13,2.82s-8.71,1.66-13.08,2.38-8.74,1.32-13.15,1.88a247.2,247.2,0,0,1-26.54,1.92,145.6,145.6,0,0,1-26.61-1.77,95.78,95.78,0,0,1-13-3.2c-4.15-1.36-8.37-2.53-12.63-3.51s-8.59-1.73-12.93-2.37-8.71-1.09-13.08-1.4a227,227,0,0,0-26.35-.37c-4.41.19-8.78.49-13.15.9-2.19.23-4.37.45-6.56.72-1.09.15-2.19.26-3.28.45l-1.62.23-.83.11-.41.08-.19,0S246.44,8,246.4,7.92Z"/><path class="cls-7" d="M455.33,4.11l16.93,27.33s2.26,219.26,1,224.84S452.36,269,452.36,269Z"/><path class="cls-3" d="M42.67,36v66.34"/><path class="cls-4" d="M42.67,36c.53,5.55.83,11,1,16.59s.3,11,.3,16.58-.08,11-.3,16.59-.49,11-1,16.58c-.57-5.54-.83-11-1-16.58s-.3-11-.3-16.59.07-11,.3-16.58S42.14,41.58,42.67,36Z"/><path class="cls-3" d="M35.77,31.89V98.23"/><path class="cls-8" d="M36,31.89A40.43,40.43,0,0,1,36.79,36c.19,1.4.34,2.76.45,4.15s.19,2.75.23,4.15a38.16,38.16,0,0,1-.12,4.14c-.22,2.76-.86,5.54-1,8.3a51.19,51.19,0,0,0,.42,8.29c.19,1.39.38,2.75.49,4.14s.19,2.76.26,4.15c.15,2.75.3,5.54.23,8.29s-.23,5.54-.53,8.3c-.15,1.39-.3,2.75-.53,4.14a40.4,40.4,0,0,1-.79,4.15h-.38c-.33-1.4-.56-2.75-.79-4.15s-.37-2.75-.52-4.14c-.31-2.76-.46-5.54-.53-8.3s.07-5.54.22-8.29C34,72,34,70.6,34.19,69.2s.3-2.75.49-4.14a44.31,44.31,0,0,0,.41-8.29c-.11-2.76-.71-5.54-1-8.3A38.16,38.16,0,0,1,34,44.33c0-1.4.11-2.75.23-4.15s.26-2.75.45-4.15a31.93,31.93,0,0,1,.83-4.14Z"/><path class="cls-3" d="M462.31,186.13v66.34"/><path class="cls-8" d="M462.5,186.13a40,40,0,0,1,.82,4.15c.19,1.39.34,2.75.46,4.14s.19,2.75.22,4.15a38.16,38.16,0,0,1-.11,4.14c-.23,2.76-.87,5.54-1,8.3a52.34,52.34,0,0,0,.41,8.29c.19,1.39.38,2.75.49,4.15s.19,2.75.27,4.14c.15,2.75.3,5.54.22,8.29s-.22,5.54-.52,8.3c-.15,1.39-.3,2.75-.53,4.14a40.4,40.4,0,0,1-.79,4.15h-.38c-.34-1.4-.56-2.75-.79-4.15s-.38-2.75-.53-4.14c-.3-2.76-.45-5.54-.53-8.3s.08-5.54.23-8.29c.08-1.39.11-2.75.26-4.14s.31-2.76.49-4.15a43.49,43.49,0,0,0,.42-8.29c-.11-2.76-.72-5.54-1-8.3a38.16,38.16,0,0,1-.11-4.14c0-1.4.11-2.75.22-4.15s.27-2.75.45-4.14a33.49,33.49,0,0,1,.83-4.15Z"/><path class="cls-3" d="M27.37,144.85v66.34"/><path class="cls-8" d="M27.55,144.85a38.56,38.56,0,0,1,.83,4.15c.19,1.4.34,2.75.46,4.15s.18,2.75.22,4.14a38.27,38.27,0,0,1-.11,4.15c-.23,2.75-.87,5.54-1,8.29a51.18,51.18,0,0,0,.41,8.29c.19,1.4.38,2.76.49,4.15s.19,2.75.27,4.15c.15,2.75.3,5.54.22,8.29s-.22,5.54-.52,8.29c-.16,1.4-.31,2.75-.53,4.15a40.21,40.21,0,0,1-.79,4.14h-.38c-.34-1.39-.57-2.75-.79-4.14s-.38-2.75-.53-4.15c-.3-2.75-.45-5.54-.53-8.29s.08-5.54.23-8.29c.07-1.4.11-2.75.26-4.15s.3-2.75.49-4.15a43.49,43.49,0,0,0,.42-8.29c-.12-2.75-.72-5.54-1-8.29a38.27,38.27,0,0,1-.12-4.15c0-1.39.12-2.75.23-4.14s.26-2.75.45-4.15a32.42,32.42,0,0,1,.83-4.15Z"/><path class="cls-3" d="M43.69,108V221.64"/><path class="cls-8" d="M43.91,108c.49,2.38.79,4.75,1.1,7.09s.45,4.75.6,7.09.22,4.75.26,7.08a62,62,0,0,1-.15,7.09c-.3,4.75-1.13,9.46-1.24,14.21A105.53,105.53,0,0,0,45,164.72c.23,2.37.46,4.75.64,7.09s.27,4.74.34,7.08c.19,4.75.38,9.46.3,14.21s-.3,9.46-.67,14.21-.87,9.46-1.7,14.21h-.49c-.83-4.75-1.32-9.46-1.7-14.21s-.6-9.46-.67-14.21.11-9.46.3-14.21c.07-2.37.19-4.75.34-7.08s.41-4.75.64-7.09a105.53,105.53,0,0,0,.56-14.21c-.15-4.75-.94-9.46-1.24-14.21-.15-2.38-.19-4.75-.15-7.09s.11-4.75.26-7.08.34-4.75.6-7.09.61-4.75,1.1-7.09Z"/><path class="cls-3" d="M465.44,45.57V159.22"/><path class="cls-8" d="M465.7,45.57c.49,2.38.79,4.75,1.09,7.09s.45,4.75.61,7.08.22,4.75.26,7.09a64.38,64.38,0,0,1-.15,7.09c-.3,4.75-1.13,9.46-1.25,14.21a105.54,105.54,0,0,0,.57,14.21c.23,2.37.45,4.75.64,7.08s.26,4.75.34,7.09c.19,4.75.38,9.46.3,14.21s-.3,9.46-.68,14.21-.86,9.46-1.69,14.21h-.49c-.83-4.75-1.32-9.46-1.7-14.21s-.6-9.46-.68-14.21.12-9.46.3-14.21c.08-2.38.19-4.75.34-7.09s.42-4.75.64-7.08a105.54,105.54,0,0,0,.57-14.21c-.15-4.75-.94-9.46-1.24-14.21-.16-2.38-.19-4.75-.16-7.09s.12-4.75.27-7.09.34-4.75.6-7.08.6-4.75,1.09-7.09Z"/><path class="cls-3" d="M30.15,69.2V178"/><path class="cls-4" d="M30.15,69.2c.53,9.09.83,18.14,1,27.22.12,4.52.15,9.08.23,13.61l.07,13.6-.07,13.61c-.08,4.52-.11,9.08-.23,13.61-.19,9.08-.49,18.13-1,27.21-.56-9.08-.82-18.13-1-27.21-.12-4.53-.15-9.09-.23-13.61l-.07-13.61.07-13.6c.08-4.53.11-9.09.23-13.61C29.33,87.34,29.59,78.29,30.15,69.2Z"/><path class="cls-3" d="M38,129.78s1.4,71.92,0,78.85"/><path class="cls-4" d="M38,129.78c.68,6.56,1.06,13.11,1.36,19.71s.45,13.16.53,19.71,0,13.16-.23,19.76c-.07,1.65-.11,3.28-.19,4.93s-.19,3.28-.26,4.94-.23,3.28-.42,4.94a36.07,36.07,0,0,1-.75,4.9,16.79,16.79,0,0,0,0-2.45c0-.83,0-1.66,0-2.45,0-1.66-.08-3.28-.15-4.94l-.3-9.84c-.19-6.56-.3-13.15-.34-19.71s0-13.15.07-19.71S37.62,136.34,38,129.78Z"/><path class="cls-3" d="M30.15,219.3v21.82"/><path class="cls-4" d="M30.15,219.3a30.33,30.33,0,0,1,1,5.46,52.16,52.16,0,0,1,.3,5.47,53.24,53.24,0,0,1-.26,5.47,28.43,28.43,0,0,1-1.06,5.46,31.31,31.31,0,0,1-1-5.46,43.2,43.2,0,0,1-.26-5.47,44,44,0,0,1,.3-5.47A28.45,28.45,0,0,1,30.15,219.3Z"/><path class="cls-3" d="M462.31,36V86.17"/><path class="cls-4" d="M462.31,36c.52,4.19.83,8.37,1,12.52s.31,8.37.31,12.51-.08,8.37-.27,12.52-.49,8.36-1.05,12.51c-.57-4.18-.83-8.37-1.06-12.51s-.3-8.37-.26-12.52.07-8.36.3-12.51S461.78,40.22,462.31,36Z"/><path class="cls-3" d="M462.31,107.5v30.87"/><path class="cls-4" d="M462.31,107.5a59.92,59.92,0,0,1,1,7.73c.19,2.56.31,5.16.31,7.73s-.08,5.16-.27,7.72a55.19,55.19,0,0,1-1.05,7.73,60.06,60.06,0,0,1-1.06-7.73c-.19-2.56-.3-5.16-.26-7.72s.07-5.17.3-7.73A59.26,59.26,0,0,1,462.31,107.5Z"/><path class="cls-3" d="M462.31,174.29v40.82"/><path class="cls-4" d="M462.31,174.29c.52,3.4.83,6.83,1,10.22s.31,6.82.31,10.21-.08,6.83-.27,10.22a95.48,95.48,0,0,1-1.05,10.21c-.57-3.39-.83-6.82-1.06-10.21s-.3-6.82-.26-10.22.07-6.82.3-10.21S461.78,177.69,462.31,174.29Z"/><path class="cls-3" d="M468.56,149.26v56.13"/><path class="cls-4" d="M468.56,149.26c.53,4.68.83,9.35,1,14s.3,9.34.3,14-.07,9.35-.26,14-.49,9.35-1.06,14c-.56-4.67-.83-9.35-1.05-14s-.3-9.35-.27-14,.08-9.35.31-14S468,153.94,468.56,149.26Z"/><path class="cls-4" d="M161.48,11.61l3.65,27.7,2.94-28.87Z"/><path class="cls-4" d="M316.36,262.08l6.52-29.78-3.24,29.78Z"/><path class="cls-4" d="M85.64,261.1l5.58-28.83Z"/><path class="cls-4" d="M91.22,260.65l-5.58.45,5.58-28.8Z"/><path class="cls-9" d="M191.22,255.3a375.23,375.23,0,0,1,52.69,10.55V51.19c-5.65,53.14-14.7,138.67-16.09,157.59A63.44,63.44,0,0,0,229,224.65c1.28,7.65,2.37,14.25-5.17,19.75C218.39,248.32,208.59,251.68,191.22,255.3Z"/><path class="cls-9" d="M277.46,35.66c8.18-15.19,20.77-24.43,36.64-26.95-20.32-3-39.88-2-51.76-.83,2,15.75,6.22,33.09,8.9,43.38A78.44,78.44,0,0,1,277.46,35.66Z"/><path class="cls-1" d="M246.25,7.8s3.43-7.42,16.32-5.61c5.39.75,13,67.05,8.18,132.94-4.45,59.93-7.65,145.68,2.07,166.75l-15.3-19.22-11.27,19.22S259.33,28,246.25,7.8Z"/><path class="cls-10" d="M258.61,200.75c-1.88-.15-4-1.32-6-7.53-1.28,43.38-2.9,82.2-3.66,99.39l6.52-11.12a2.29,2.29,0,0,1,1.85-1.13,2.23,2.23,0,0,1,2,.87l8.14,10.21c-2.79-14.92-4.52-43.23-2.45-96.38C263,199.21,261,200.94,258.61,200.75Z"/><path class="cls-11" d="M204.64,17.57c-3.66,30.49.79,61.25-3.43,91.51-3.06,21.9-4.94,45.5,6.89,65,3.55-4.33,2.23-12.77,2.76-18,.79-8,2.45-15.95,2.86-24,.87-17.87,3.17-35.7,3.43-53.57.34-22.38-.38-41-7.05-62.42A7.52,7.52,0,0,0,204.64,17.57Z"/><path class="cls-12" d="M5.47,271.39A38.19,38.19,0,0,0,21,266.23a.15.15,0,0,1-.12,0,18.06,18.06,0,0,1-7.91-3.36,17.13,17.13,0,0,1-5-5.65C6.67,262,5.43,266.79,5.47,271.39Z"/><path class="cls-12" d="M465.89,6.33c3.16,0,6.67.3,9.72-.45.23,2.64-.41,5.84-.41,8.59,0,2.57.22,5.09.26,7.62-.9-3-.75-5.92-2.56-8.56a20.76,20.76,0,0,0-3-3C468.49,9.27,466,8.41,465.89,6.33Z"/></g></g></svg>