<svg xmlns="http://www.w3.org/2000/svg" xmlns:xlink="http://www.w3.org/1999/xlink" viewBox="0 0 144.69 125.52"><defs><style>.cls-1{fill:none;}.cls-2{clip-path:url(#clip-path);}.cls-3{fill:#f1f2f2;}.cls-4{fill:#3c2415;}.cls-5{fill:#00aeef;}.cls-6{fill:#fcee12;}.cls-7{fill:#a97c50;}.cls-8{fill:#f15a29;}.cls-9{clip-path:url(#clip-path-31);}</style><clipPath id="clip-path" transform="translate(-73.77 -21.21)"><rect class="cls-1" x="24.88" width="211.67" height="148.17"/></clipPath><clipPath id="clip-path-31" transform="translate(-73.77 -21.21)"><rect class="cls-1" x="15.81" y="84.35" width="224.58" height="157.2" transform="translate(-78.67 177.41) rotate(-55.83)"/></clipPath></defs><g id="Layer_2" data-name="Layer 2"><g id="master-artboard"><g class="cls-2"><path class="cls-3" d="M207.77,146.24a1.35,1.35,0,0,1-1.92.18L93.5,53.79a1.37,1.37,0,0,1-.19-1.92l10.39-12.6a1.37,1.37,0,0,1,1.92-.18L218,131.73a1.36,1.36,0,0,1,.19,1.92Z" transform="translate(-73.77 -21.21)"/></g><g class="cls-2"><path class="cls-4" d="M175.39,74.09a48.76,48.76,0,1,1-48.76-48.76A48.76,48.76,0,0,1,175.39,74.09Z" transform="translate(-73.77 -21.21)"/></g><g class="cls-2"><path class="cls-5" d="M166.55,59.71a5.5,5.5,0,0,1,0-4,5.06,5.06,0,0,1,2.84-2.6,5.33,5.33,0,0,1,3.9-.3,4.79,4.79,0,0,1,2.83,5.68,5.05,5.05,0,0,1-2,2.6l1.16,2.72-2.55,1.11-2-4.63.31-.12.17-.06a3.84,3.84,0,0,0,2-1.62,2.28,2.28,0,0,0,0-2.13A2,2,0,0,0,172,55.22a2.39,2.39,0,0,0-1.8.15,2.26,2.26,0,0,0-1.32,1.3,2.85,2.85,0,0,0,.09,2ZM176,69.38a2.11,2.11,0,0,1-1.65.06,2.06,2.06,0,0,1-1.15-1.13,2,2,0,0,1,0-1.6,2.12,2.12,0,0,1,1.18-1.15,2.17,2.17,0,0,1,1.62,0,2,2,0,0,1,1.15,1.11A2.12,2.12,0,0,1,176,69.38Z" transform="translate(-73.77 -21.21)"/></g><g class="cls-2"><path class="cls-6" d="M128.81,92.29,127,91.87l.63-2.76,1.86.43Zm4.41-11.11a3.75,3.75,0,0,1-1.07,1.92l-.79.75a5.3,5.3,0,0,0-1.36,2l-1,2.91-.7-.17.45-3.51c.05-.33.11-.63.17-.91a2.61,2.61,0,0,1,.71-1.28l.79-.76a3.6,3.6,0,0,0,1-1.86l.65-2.79c.14-.61-.06-1-.6-1.11s-.88.12-1,.73l-.83,3.58-1.88-.42.59-2.59a2.21,2.21,0,0,1,1.15-1.48,3.13,3.13,0,0,1,3.84.88,2.17,2.17,0,0,1,.39,1.83Z" transform="translate(-73.77 -21.21)"/></g><g class="cls-2"><path class="cls-5" d="M139.7,87.87a5.54,5.54,0,0,1,0-4,5,5,0,0,1,2.85-2.6,5.28,5.28,0,0,1,3.9-.3,4.31,4.31,0,0,1,2.6,2.54,4.42,4.42,0,0,1,.23,3.14,5.06,5.06,0,0,1-2.05,2.6L148.36,92l-2.56,1.11-2-4.63a2.08,2.08,0,0,1,.32-.12l.17-.06a4,4,0,0,0,2-1.62,2.28,2.28,0,0,0,0-2.13,2,2,0,0,0-1.2-1.17,2.45,2.45,0,0,0-1.8.16,2.21,2.21,0,0,0-1.31,1.3,2.85,2.85,0,0,0,.09,2Zm9.41,9.67a2.17,2.17,0,0,1-1.64.06,2.08,2.08,0,0,1-1.15-1.14,2,2,0,0,1,0-1.6,2.15,2.15,0,0,1,1.18-1.15,2.09,2.09,0,0,1,1.61,0,1.92,1.92,0,0,1,1.15,1.1,2,2,0,0,1,0,1.6A2,2,0,0,1,149.11,97.54Z" transform="translate(-73.77 -21.21)"/></g><g class="cls-2"><path class="cls-6" d="M167.86,86.56l.83-3.64a3.84,3.84,0,0,0,4.9-2.88,2.28,2.28,0,0,0-1.84-3,2.36,2.36,0,0,0-3.06,2l0,.18-3.06-.71.19-.8c.56-2.4,2.84-4.1,6.48-3.25,3.83.88,5.07,3.51,4.42,6.35-.83,3.61-5.16,4.34-5.72,4.29l-.44,2Zm.17,5.29a1.73,1.73,0,0,1-1.32-2.09A1.77,1.77,0,1,1,168,91.85Z" transform="translate(-73.77 -21.21)"/></g><g class="cls-2"><path class="cls-6" d="M160.44,109.59l-1.86-.43.63-2.75,1.86.42Zm4.4-11.12a3.78,3.78,0,0,1-1.07,1.92l-.79.76a5,5,0,0,0-1.36,1.95l-1,2.9-.69-.16.45-3.51a7,7,0,0,1,.17-.91,2.57,2.57,0,0,1,.71-1.28l.78-.76a3.61,3.61,0,0,0,1-1.86l.65-2.8c.13-.6-.07-1-.61-1.1s-.88.12-1,.73l-.83,3.58-1.87-.42.59-2.59a2.2,2.2,0,0,1,1.14-1.48,2.88,2.88,0,0,1,2.08-.24A2.8,2.8,0,0,1,165,94.32a2.16,2.16,0,0,1,.4,1.82Z" transform="translate(-73.77 -21.21)"/></g><g class="cls-2"><path class="cls-5" d="M127.72,108.8a5.56,5.56,0,0,1,0-4,5.12,5.12,0,0,1,2.84-2.6,5.33,5.33,0,0,1,3.9-.3,4.8,4.8,0,0,1,2.83,5.69,5.13,5.13,0,0,1-2,2.6l1.16,2.72-2.55,1.1-2-4.63a3,3,0,0,1,.32-.12l.16-.06a3.9,3.9,0,0,0,2-1.61,2.33,2.33,0,0,0,0-2.14,2,2,0,0,0-1.19-1.16,2.44,2.44,0,0,0-1.8.15,2.31,2.31,0,0,0-1.32,1.3,2.8,2.8,0,0,0,.1,2Zm9.42,9.66a2.15,2.15,0,0,1-1.65.06,2.06,2.06,0,0,1-1.15-1.13,2,2,0,0,1,0-1.6,2.25,2.25,0,0,1,2.8-1.2,2.05,2.05,0,0,1,1.16,2.71A2.07,2.07,0,0,1,137.14,118.46Z" transform="translate(-73.77 -21.21)"/></g><g class="cls-2"><path class="cls-7" d="M130,95.89a1.3,1.3,0,0,1,.77-1.65,1.45,1.45,0,0,1,1.82,1.19,1.19,1.19,0,0,1-1.1,1.56A1.63,1.63,0,0,1,130,95.89Zm9.71-3.1a1.44,1.44,0,0,0-2-.88.92.92,0,0,0-.15,1.69s-1.48,1-2.19,0,.24-2.13,1.55-2.59a3.26,3.26,0,0,1,4,1.88c1,1.93-.06,3.46-1.46,3.73-2.48.47-4.37-1.83-5.73-1.33-.79.29-.58-.56-.58-.56,1.71-.71,3.66.46,5.07.09S140.12,93.8,139.68,92.79Z" transform="translate(-73.77 -21.21)"/></g><g class="cls-2"><path class="cls-7" d="M101.85,91.09a1.28,1.28,0,0,1,.77-1.64,1.44,1.44,0,0,1,1.82,1.19,1.2,1.2,0,0,1-1.11,1.56A1.64,1.64,0,0,1,101.85,91.09ZM111.56,88a1.45,1.45,0,0,0-2-.88.92.92,0,0,0-.15,1.69s-1.49,1-2.2,0,.25-2.14,1.56-2.59a3.26,3.26,0,0,1,4,1.88c1,1.93-.06,3.46-1.46,3.73-2.48.47-4.37-1.83-5.73-1.33-.79.29-.58-.56-.58-.56,1.71-.71,3.66.45,5.07.09S112,89,111.56,88Z" transform="translate(-73.77 -21.21)"/></g><g class="cls-2"><path class="cls-8" d="M157.63,84.68l.16.79-.5.11-.62-2.86a2.8,2.8,0,0,1,.08-1.44,6.12,6.12,0,0,1,1.19-1.86A6,6,0,0,0,159,77.8a2,2,0,0,0,.08-1.14,1.76,1.76,0,0,0-1.08-1.3,3.34,3.34,0,0,0-2.11-.13,3.57,3.57,0,0,0-1.24.49,5.07,5.07,0,0,0-1.06,1l-.12-.59a3.25,3.25,0,0,1,2.36-2.1,3,3,0,0,1,2.6.67A4.54,4.54,0,0,1,160,77.4a4.2,4.2,0,0,1,0,1.93,5.54,5.54,0,0,1-1.24,2,5,5,0,0,0-1.12,1.77A3.18,3.18,0,0,0,157.63,84.68Zm.33,1.73a1.23,1.23,0,0,1,1.48.94,1.25,1.25,0,0,1-.95,1.49,1.28,1.28,0,0,1-1-.16,1.24,1.24,0,0,1-.56-.81,1.16,1.16,0,0,1,.18-.92A1.26,1.26,0,0,1,158,86.41Z" transform="translate(-73.77 -21.21)"/></g><g class="cls-2"><path class="cls-5" d="M118.21,110.89a3.44,3.44,0,0,1,0-2.51,3.18,3.18,0,0,1,1.78-1.64,3.39,3.39,0,0,1,2.46-.19,2.7,2.7,0,0,1,1.64,1.6,2.79,2.79,0,0,1,.13,2,3.19,3.19,0,0,1-1.28,1.65l.74,1.71-1.62.69-1.25-2.92a.73.73,0,0,1,.19-.07c.06,0,.11,0,.11,0a2.48,2.48,0,0,0,1.28-1,1.49,1.49,0,0,0,0-1.35,1.16,1.16,0,0,0-.75-.72,1.58,1.58,0,0,0-1.14.09,1.43,1.43,0,0,0-.83.82,1.76,1.76,0,0,0,.06,1.25Zm5.94,6.09a1.3,1.3,0,0,1-1,0,1.35,1.35,0,0,1-.74-1.74,1.34,1.34,0,0,1,.74-.72,1.32,1.32,0,1,1,1,2.43Z" transform="translate(-73.77 -21.21)"/></g><g class="cls-2"><path class="cls-6" d="M136.23,57.42,134.37,57l.64-2.75,1.86.42Zm4.42-11.11a3.73,3.73,0,0,1-1.08,1.92l-.78.76a5,5,0,0,0-1.36,1.95l-1,2.9-.7-.17.46-3.5a8.92,8.92,0,0,1,.16-.91,2.73,2.73,0,0,1,.71-1.29l.79-.75a3.61,3.61,0,0,0,1-1.86l.65-2.8c.14-.6-.06-1-.6-1.1s-.88.12-1,.72l-.83,3.59-1.88-.43.59-2.58a2.22,2.22,0,0,1,1.15-1.48A2.81,2.81,0,0,1,139,41a2.88,2.88,0,0,1,1.77,1.12,2.19,2.19,0,0,1,.4,1.83Z" transform="translate(-73.77 -21.21)"/></g><g class="cls-2"><path class="cls-5" d="M147.12,53a5.51,5.51,0,0,1,0-4,5.06,5.06,0,0,1,2.84-2.6,5.33,5.33,0,0,1,3.9-.3,4.79,4.79,0,0,1,2.83,5.68,5.11,5.11,0,0,1-2,2.61l1.16,2.72-2.55,1.1-2-4.63.31-.12.17-.06a3.91,3.91,0,0,0,2-1.62,2.31,2.31,0,0,0,0-2.13,2,2,0,0,0-1.19-1.16,2.44,2.44,0,0,0-1.8.15,2.23,2.23,0,0,0-1.32,1.3,2.85,2.85,0,0,0,.09,2Zm9.42,9.66a2.15,2.15,0,0,1-1.65.06,2.06,2.06,0,0,1-1.15-1.13,2,2,0,0,1,0-1.61,2.26,2.26,0,0,1,2.8-1.19,2,2,0,0,1,1.15,1.1,2.09,2.09,0,0,1,0,1.61A2,2,0,0,1,156.54,62.67Z" transform="translate(-73.77 -21.21)"/></g><g class="cls-2"><path class="cls-8" d="M133.42,32.52l.17.79-.5.1-.62-2.85a2.69,2.69,0,0,1,.07-1.44,6.19,6.19,0,0,1,1.2-1.86,6.48,6.48,0,0,0,1.06-1.62,2.06,2.06,0,0,0,.07-1.15,1.8,1.8,0,0,0-1.07-1.3,4,4,0,0,0-3.36.37,5.32,5.32,0,0,0-1.06,1l-.12-.59a3.26,3.26,0,0,1,2.36-2.1,3,3,0,0,1,2.6.66,4.57,4.57,0,0,1,1.57,2.66,4.11,4.11,0,0,1,0,1.94,5.41,5.41,0,0,1-1.24,2A5.19,5.19,0,0,0,133.45,31,3.07,3.07,0,0,0,133.42,32.52Zm.35,1.73a1.2,1.2,0,0,1,.94.16,1.23,1.23,0,0,1,.54.77,1.2,1.2,0,0,1-.17,1,1.27,1.27,0,0,1-1.75.37,1.2,1.2,0,0,1-.56-.8,1.11,1.11,0,0,1,.18-.92A1.26,1.26,0,0,1,133.77,34.25Z" transform="translate(-73.77 -21.21)"/></g><g class="cls-2"><path class="cls-7" d="M137.4,61a1.29,1.29,0,0,1,.77-1.65,1.44,1.44,0,0,1,1.81,1.2,1.19,1.19,0,0,1-1.1,1.56A1.63,1.63,0,0,1,137.4,61Zm9.7-3.1a1.45,1.45,0,0,0-1.95-.87.92.92,0,0,0-.15,1.69s-1.48,1-2.19,0,.24-2.13,1.56-2.58a3.27,3.27,0,0,1,4,1.87c.95,1.94-.06,3.47-1.47,3.74-2.48.47-4.37-1.83-5.73-1.33-.78.28-.57-.56-.57-.56,1.71-.71,3.66.45,5.06.09S147.54,58.92,147.1,57.92Z" transform="translate(-73.77 -21.21)"/></g><g class="cls-2"><path class="cls-5" d="M99.4,113.43a2.17,2.17,0,0,1-1.24-1.09,2,2,0,0,1-.06-1.62,2,2,0,0,1,1.07-1.18,2.14,2.14,0,0,1,1.65,0,2,2,0,0,1,1.21,1.07,1.92,1.92,0,0,1,.09,1.59,2.14,2.14,0,0,1-2.72,1.26Zm-.27-13.49A5.55,5.55,0,0,1,101.82,97a5,5,0,0,1,3.84,0,5.34,5.34,0,0,1,3.06,2.45,4.31,4.31,0,0,1,.16,3.63,4.39,4.39,0,0,1-2,2.44,5.14,5.14,0,0,1-3.26.52l-1,2.78-2.61-1,1.71-4.73c.1,0,.21.07.31.12l.17.07a4,4,0,0,0,2.58.21,2.31,2.31,0,0,0,1.49-1.52,2,2,0,0,0-.08-1.67,2.5,2.5,0,0,0-1.42-1.12,2.32,2.32,0,0,0-1.85,0,2.79,2.79,0,0,0-1.28,1.51Z" transform="translate(-73.77 -21.21)"/></g><g class="cls-2"><path class="cls-6" d="M85.63,96.92l.83-3.65a3.83,3.83,0,0,0,4.9-2.87,2.28,2.28,0,0,0-1.85-3,2.35,2.35,0,0,0-3.05,2l0,.18-3-.71.18-.8c.56-2.41,2.84-4.1,6.49-3.25,3.82.87,5.06,3.5,4.41,6.35-.83,3.61-5.15,4.34-5.71,4.3l-.44,2Zm.15,5.29a1.74,1.74,0,1,1,2.13-1.3A1.73,1.73,0,0,1,85.78,102.21Z" transform="translate(-73.77 -21.21)"/></g><g class="cls-2"><path class="cls-6" d="M107.14,41.58l.7-3.06a3.21,3.21,0,0,0,4.1-2.4,1.9,1.9,0,0,0-1.55-2.49,2,2,0,0,0-2.55,1.69l0,.15-2.56-.59.15-.66c.47-2,2.38-3.44,5.43-2.73,3.21.74,4.25,2.94,3.71,5.31-.7,3-4.31,3.63-4.78,3.6l-.36,1.69Zm.14,4.43a1.46,1.46,0,1,1,1.77-1.09A1.44,1.44,0,0,1,107.28,46Z" transform="translate(-73.77 -21.21)"/></g><g class="cls-2"><path class="cls-7" d="M114.75,41.94a1.08,1.08,0,0,1,.63-1.37,1.22,1.22,0,0,1,1.53,1,1,1,0,0,1-.92,1.32A1.36,1.36,0,0,1,114.75,41.94Zm8.12-2.58a1.22,1.22,0,0,0-1.64-.73.77.77,0,0,0-.12,1.42s-1.24.8-1.84,0,.21-1.79,1.3-2.17a2.75,2.75,0,0,1,3.34,1.58c.8,1.61,0,2.9-1.22,3.13-2.09.39-3.66-1.55-4.8-1.12-.65.24-.48-.47-.48-.47,1.42-.61,3,.38,4.23.07S123.25,40.19,122.87,39.36Z" transform="translate(-73.77 -21.21)"/></g><g class="cls-2"><path class="cls-8" d="M98.57,40l.14.66-.43.09-.51-2.39a2.17,2.17,0,0,1,.06-1.21,5.92,5.92,0,0,1,1-1.55,4.89,4.89,0,0,0,.87-1.35,1.54,1.54,0,0,0,.06-1,1.48,1.48,0,0,0-.89-1.09,2.87,2.87,0,0,0-1.77-.1,3.48,3.48,0,0,0-1,.39,4,4,0,0,0-.88.88l-.1-.5a2.7,2.7,0,0,1,2-1.75,2.45,2.45,0,0,1,2.18.56,3.71,3.71,0,0,1,1.32,2.23,3.54,3.54,0,0,1,0,1.62,4.5,4.5,0,0,1-1,1.69,4.15,4.15,0,0,0-.94,1.49A2.85,2.85,0,0,0,98.57,40Zm.29,1.45a1,1,0,0,1,.78.13,1,1,0,0,1,.46.65,1.1,1.1,0,0,1-.14.81,1,1,0,0,1-.66.45,1.09,1.09,0,0,1-.81-.14A1,1,0,0,1,98,42.7a.92.92,0,0,1,.15-.77A1,1,0,0,1,98.86,41.46Z" transform="translate(-73.77 -21.21)"/></g><g class="cls-2"><path class="cls-7" d="M88.27,81.25a1.08,1.08,0,0,1,.64-1.37,1.22,1.22,0,0,1,1.53,1,1,1,0,0,1-.93,1.32A1.38,1.38,0,0,1,88.27,81.25Zm8.12-2.58a1.19,1.19,0,0,0-1.63-.73.77.77,0,0,0-.12,1.42s-1.24.8-1.85,0,.22-1.79,1.3-2.16a2.75,2.75,0,0,1,3.35,1.57c.8,1.62,0,2.9-1.23,3.13-2.08.39-3.66-1.55-4.79-1.12-.65.24-.49-.47-.49-.47,1.43-.61,3.06.38,4.24.08S96.77,79.5,96.39,78.67Z" transform="translate(-73.77 -21.21)"/></g><g class="cls-2"><path class="cls-6" d="M78.08,66.8l-1.55-.36.53-2.3,1.55.36Zm3.69-9.3a3.23,3.23,0,0,1-.9,1.6l-.67.64a4.2,4.2,0,0,0-1.15,1.63l-.82,2.43-.59-.13L78,60.73a5,5,0,0,1,.14-.75,2.11,2.11,0,0,1,.6-1.07l.67-.64a3,3,0,0,0,.85-1.56l.54-2.34c.12-.51,0-.82-.51-.92s-.75.1-.87.6l-.69,3-1.57-.36.5-2.16a1.82,1.82,0,0,1,1-1.24,2.32,2.32,0,0,1,1.73-.2,2.46,2.46,0,0,1,1.48.94,1.8,1.8,0,0,1,.33,1.52Z" transform="translate(-73.77 -21.21)"/></g><g class="cls-2"><path class="cls-5" d="M87.19,63.11a4.54,4.54,0,0,1,0-3.33,4.29,4.29,0,0,1,2.37-2.17,4.46,4.46,0,0,1,3.27-.26,4,4,0,0,1,2.37,4.76,4.08,4.08,0,0,1-1.71,2.18l1,2.28-2.15.92-1.66-3.87.27-.1.14-.05a3.38,3.38,0,0,0,1.7-1.34,1.89,1.89,0,0,0,0-1.79,1.63,1.63,0,0,0-1-1,2.16,2.16,0,0,0-1.52.13,1.92,1.92,0,0,0-1.1,1.08,2.38,2.38,0,0,0,.08,1.67Zm7.89,8.09a1.84,1.84,0,0,1-1.38,0,1.65,1.65,0,0,1-1-.95,1.71,1.71,0,0,1,0-1.35,1.76,1.76,0,0,1,1-1,1.74,1.74,0,0,1,1.36,0,1.6,1.6,0,0,1,1,.92,1.76,1.76,0,0,1-.93,2.32Z" transform="translate(-73.77 -21.21)"/></g><g class="cls-2"><path class="cls-6" d="M110.77,62l.7-3.05a3.21,3.21,0,0,0,4.09-2.41A1.89,1.89,0,0,0,114,54.07a2,2,0,0,0-2.55,1.69l0,.15-2.56-.59.15-.66c.47-2,2.38-3.44,5.43-2.72,3.21.74,4.25,2.93,3.71,5.3-.7,3-4.31,3.63-4.78,3.6L113,62.53Zm.14,4.43a1.46,1.46,0,1,1,1.77-1.09A1.45,1.45,0,0,1,110.91,66.45Z" transform="translate(-73.77 -21.21)"/></g><g class="cls-2"><path class="cls-6" d="M104.54,81.28,103,80.92l.52-2.3,1.56.36Zm3.69-9.3a3.09,3.09,0,0,1-.91,1.61l-.66.63a4.27,4.27,0,0,0-1.15,1.63l-.82,2.44-.59-.14.38-2.93a4.92,4.92,0,0,1,.14-.76,2.15,2.15,0,0,1,.6-1.07l.67-.64a2.91,2.91,0,0,0,.84-1.55l.55-2.35c.12-.51,0-.81-.52-.92s-.74.11-.86.61l-.69,3-1.57-.37.49-2.16a1.91,1.91,0,0,1,1-1.24,2.32,2.32,0,0,1,1.73-.2,2.5,2.5,0,0,1,1.48.94,1.87,1.87,0,0,1,.33,1.53Z" transform="translate(-73.77 -21.21)"/></g><g class="cls-2"><path class="cls-5" d="M113.66,77.59a4.62,4.62,0,0,1,0-3.32A4.29,4.29,0,0,1,116,72.09a4.48,4.48,0,0,1,3.26-.26A3.69,3.69,0,0,1,121.46,74a3.8,3.8,0,0,1,.2,2.64A4.11,4.11,0,0,1,120,78.77l1,2.29-2.15.92-1.66-3.87a1.53,1.53,0,0,1,.27-.11l.14,0a3.48,3.48,0,0,0,1.71-1.35,1.89,1.89,0,0,0,0-1.78,1.62,1.62,0,0,0-1-1,2.13,2.13,0,0,0-1.51.12,1.88,1.88,0,0,0-1.1,1.09,2.29,2.29,0,0,0,.07,1.66Zm7.88,8.09a1.84,1.84,0,0,1-1.38,0,1.78,1.78,0,0,1,1.36-3.28,1.55,1.55,0,0,1,1,.92,1.65,1.65,0,0,1,0,1.34A1.6,1.6,0,0,1,121.54,85.68Z" transform="translate(-73.77 -21.21)"/></g><g class="cls-2"><path class="cls-7" d="M118.36,62.38A1.08,1.08,0,0,1,119,61a1.21,1.21,0,0,1,1.52,1,1,1,0,0,1-.92,1.31A1.41,1.41,0,0,1,118.36,62.38Zm8.12-2.6a1.22,1.22,0,0,0-1.63-.72.77.77,0,0,0-.12,1.42s-1.24.8-1.85,0,.21-1.78,1.3-2.16a2.74,2.74,0,0,1,3.34,1.57c.81,1.62,0,2.91-1.22,3.13-2.09.4-3.66-1.54-4.79-1.12-.65.25-.49-.46-.49-.46,1.42-.61,3.06.37,4.24.07S126.86,60.63,126.48,59.78Z" transform="translate(-73.77 -21.21)"/></g><g class="cls-2"><path class="cls-7" d="M79.05,69.82a1.08,1.08,0,0,1,.64-1.37,1.2,1.2,0,0,1,1.52,1,1,1,0,0,1-.92,1.32A1.41,1.41,0,0,1,79.05,69.82Zm8.12-2.58a1.21,1.21,0,0,0-1.63-.73.77.77,0,0,0-.12,1.42s-1.24.8-1.85,0,.21-1.79,1.3-2.17a2.75,2.75,0,0,1,3.34,1.58c.8,1.61,0,2.9-1.22,3.13-2.09.39-3.66-1.55-4.79-1.12-.65.24-.49-.47-.49-.47,1.42-.61,3.06.38,4.24.07S87.55,68.07,87.17,67.24Z" transform="translate(-73.77 -21.21)"/></g><g class="cls-2"><path class="cls-8" d="M102.18,60.45l.14.66-.42.09-.52-2.39a2.23,2.23,0,0,1,.06-1.2,5.78,5.78,0,0,1,1-1.56,5.25,5.25,0,0,0,.88-1.35,1.7,1.7,0,0,0,.06-1,1.51,1.51,0,0,0-.89-1.08,2.8,2.8,0,0,0-1.77-.11,3.55,3.55,0,0,0-1,.39,3.8,3.8,0,0,0-.87.88l-.11-.5a2.7,2.7,0,0,1,2-1.75,2.44,2.44,0,0,1,2.17.56,3.71,3.71,0,0,1,1.32,2.23,3.29,3.29,0,0,1,0,1.62,4.4,4.4,0,0,1-1,1.7,4.28,4.28,0,0,0-.94,1.48A3.15,3.15,0,0,0,102.18,60.45Zm.29,1.43a1,1,0,0,1,.79.14,1,1,0,0,1,.45.65,1.05,1.05,0,0,1-.8,1.26,1,1,0,0,1-.8-.16.94.94,0,0,1-.47-.66.92.92,0,0,1,.15-.77A1.08,1.08,0,0,1,102.47,61.88Z" transform="translate(-73.77 -21.21)"/></g><g class="cls-9"><path class="cls-6" d="M141.25,74.43l-2.7-2.9a4.07,4.07,0,0,0,.39-6,2.41,2.41,0,0,0-3.71-.16,2.5,2.5,0,0,0,0,3.89l.13.15-2.44,2.26-.6-.64c-1.77-1.92-1.9-4.94,1-7.63,3.05-2.84,6.1-2.36,8.21-.09,2.68,2.88.74,7.11.36,7.57l1.52,1.6Zm4.73,3a1.84,1.84,0,1,1-2.5-2.7,1.84,1.84,0,1,1,2.5,2.7Z" transform="translate(-73.77 -21.21)"/></g><g class="cls-2"><path class="cls-3" d="M126.63,126.93A52.83,52.83,0,0,1,89.26,36.7a52.86,52.86,0,1,1,58,86.07A52.35,52.35,0,0,1,126.63,126.93Zm0-97.52a44.68,44.68,0,1,0,44.68,44.68A44.72,44.72,0,0,0,126.63,29.41Z" transform="translate(-73.77 -21.21)"/></g></g></g></svg>